<svg xmlns="http://www.w3.org/2000/svg" width="760" height="430" viewBox="0 0 760 430" font-family="Segoe UI, Helvetica, Arial, sans-serif">
<rect x="0.5" y="0.5" width="759" height="429" rx="10" fill="white" stroke="#e5e7eb"/>
<text x="78" y="28" font-size="16" font-weight="600" fill="#111827">A few tens of degrees near Tg changes everything</text>
<text x="78" y="47" font-size="12.5" fill="#6b7280">WLF equation with the universal constants (C1 = 17.44, C2 = 51.6 K)</text>
<line x1="78.0" y1="60" x2="78.0" y2="366" stroke="#e5e7eb"/>
<text x="78.0" y="386" font-size="13" text-anchor="middle" fill="#6b7280">0</text>
<line x1="208.8" y1="60" x2="208.8" y2="366" stroke="#e5e7eb"/>
<text x="208.8" y="386" font-size="13" text-anchor="middle" fill="#6b7280">20</text>
<line x1="339.6" y1="60" x2="339.6" y2="366" stroke="#e5e7eb"/>
<text x="339.6" y="386" font-size="13" text-anchor="middle" fill="#6b7280">40</text>
<line x1="470.4" y1="60" x2="470.4" y2="366" stroke="#e5e7eb"/>
<text x="470.4" y="386" font-size="13" text-anchor="middle" fill="#6b7280">60</text>
<line x1="601.2" y1="60" x2="601.2" y2="366" stroke="#e5e7eb"/>
<text x="601.2" y="386" font-size="13" text-anchor="middle" fill="#6b7280">80</text>
<line x1="732.0" y1="60" x2="732.0" y2="366" stroke="#e5e7eb"/>
<text x="732.0" y="386" font-size="13" text-anchor="middle" fill="#6b7280">100</text>
<line x1="78" y1="366.0" x2="732" y2="366.0" stroke="#e5e7eb"/>
<text x="70" y="370.0" font-size="13" text-anchor="end" fill="#6b7280">0</text>
<line x1="78" y1="317.0" x2="732" y2="317.0" stroke="#e5e7eb"/>
<text x="70" y="321.0" font-size="13" text-anchor="end" fill="#6b7280">2</text>
<line x1="78" y1="268.1" x2="732" y2="268.1" stroke="#e5e7eb"/>
<text x="70" y="272.1" font-size="13" text-anchor="end" fill="#6b7280">4</text>
<line x1="78" y1="219.1" x2="732" y2="219.1" stroke="#e5e7eb"/>
<text x="70" y="223.1" font-size="13" text-anchor="end" fill="#6b7280">6</text>
<line x1="78" y1="170.2" x2="732" y2="170.2" stroke="#e5e7eb"/>
<text x="70" y="174.2" font-size="13" text-anchor="end" fill="#6b7280">8</text>
<line x1="78" y1="121.2" x2="732" y2="121.2" stroke="#e5e7eb"/>
<text x="70" y="125.2" font-size="13" text-anchor="end" fill="#6b7280">10</text>
<line x1="78" y1="72.2" x2="732" y2="72.2" stroke="#e5e7eb"/>
<text x="70" y="76.2" font-size="13" text-anchor="end" fill="#6b7280">12</text>
<line x1="78" y1="366" x2="732" y2="366" stroke="#111827" stroke-width="1.2"/>
<line x1="78" y1="60" x2="78" y2="366" stroke="#111827" stroke-width="1.2"/>
<path d="M78.0,366.0 L80.2,363.3 L82.4,360.5 L84.6,357.9 L86.7,355.2 L88.9,352.6 L91.1,350.0 L93.3,347.5 L95.5,345.0 L97.7,342.5 L99.9,340.0 L102.1,337.6 L104.2,335.2 L106.4,332.8 L108.6,330.5 L110.8,328.2 L113.0,325.9 L115.2,323.6 L117.4,321.4 L119.6,319.2 L121.7,317.0 L123.9,314.9 L126.1,312.7 L128.3,310.6 L130.5,308.5 L132.7,306.5 L134.9,304.4 L137.1,302.4 L139.2,300.4 L141.4,298.4 L143.6,296.5 L145.8,294.6 L148.0,292.7 L150.2,290.8 L152.4,288.9 L154.6,287.1 L156.7,285.2 L158.9,283.4 L161.1,281.6 L163.3,279.9 L165.5,278.1 L167.7,276.4 L169.9,274.6 L172.1,272.9 L174.2,271.3 L176.4,269.6 L178.6,267.9 L180.8,266.3 L183.0,264.7 L185.2,263.1 L187.4,261.5 L189.6,259.9 L191.7,258.4 L193.9,256.8 L196.1,255.3 L198.3,253.8 L200.5,252.3 L202.7,250.8 L204.9,249.4 L207.1,247.9 L209.2,246.5 L211.4,245.0 L213.6,243.6 L215.8,242.2 L218.0,240.8 L220.2,239.4 L222.4,238.1 L224.5,236.7 L226.7,235.4 L228.9,234.1 L231.1,232.8 L233.3,231.4 L235.5,230.2 L237.7,228.9 L239.9,227.6 L242.0,226.3 L244.2,225.1 L246.4,223.9 L248.6,222.6 L250.8,221.4 L253.0,220.2 L255.2,219.0 L257.4,217.8 L259.5,216.7 L261.7,215.5 L263.9,214.3 L266.1,213.2 L268.3,212.1 L270.5,210.9 L272.7,209.8 L274.9,208.7 L277.0,207.6 L279.2,206.5 L281.4,205.4 L283.6,204.4 L285.8,203.3 L288.0,202.2 L290.2,201.2 L292.4,200.2 L294.5,199.1 L296.7,198.1 L298.9,197.1 L301.1,196.1 L303.3,195.1 L305.5,194.1 L307.7,193.1 L309.9,192.1 L312.0,191.2 L314.2,190.2 L316.4,189.2 L318.6,188.3 L320.8,187.4 L323.0,186.4 L325.2,185.5 L327.4,184.6 L329.5,183.7 L331.7,182.8 L333.9,181.9 L336.1,181.0 L338.3,180.1 L340.5,179.2 L342.7,178.3 L344.8,177.5 L347.0,176.6 L349.2,175.8 L351.4,174.9 L353.6,174.1 L355.8,173.2 L358.0,172.4 L360.2,171.6 L362.3,170.8 L364.5,170.0 L366.7,169.2 L368.9,168.3 L371.1,167.6 L373.3,166.8 L375.5,166.0 L377.7,165.2 L379.8,164.4 L382.0,163.7 L384.2,162.9 L386.4,162.1 L388.6,161.4 L390.8,160.6 L393.0,159.9 L395.2,159.2 L397.3,158.4 L399.5,157.7 L401.7,157.0 L403.9,156.3 L406.1,155.5 L408.3,154.8 L410.5,154.1 L412.7,153.4 L414.8,152.7 L417.0,152.0 L419.2,151.4 L421.4,150.7 L423.6,150.0 L425.8,149.3 L428.0,148.7 L430.2,148.0 L432.3,147.3 L434.5,146.7 L436.7,146.0 L438.9,145.4 L441.1,144.7 L443.3,144.1 L445.5,143.4 L447.7,142.8 L449.8,142.2 L452.0,141.6 L454.2,140.9 L456.4,140.3 L458.6,139.7 L460.8,139.1 L463.0,138.5 L465.2,137.9 L467.3,137.3 L469.5,136.7 L471.7,136.1 L473.9,135.5 L476.1,134.9 L478.3,134.4 L480.5,133.8 L482.6,133.2 L484.8,132.6 L487.0,132.1 L489.2,131.5 L491.4,130.9 L493.6,130.4 L495.8,129.8 L498.0,129.3 L500.1,128.7 L502.3,128.2 L504.5,127.7 L506.7,127.1 L508.9,126.6 L511.1,126.0 L513.3,125.5 L515.5,125.0 L517.6,124.5 L519.8,123.9 L522.0,123.4 L524.2,122.9 L526.4,122.4 L528.6,121.9 L530.8,121.4 L533.0,120.9 L535.1,120.4 L537.3,119.9 L539.5,119.4 L541.7,118.9 L543.9,118.4 L546.1,117.9 L548.3,117.4 L550.5,117.0 L552.6,116.5 L554.8,116.0 L557.0,115.5 L559.2,115.1 L561.4,114.6 L563.6,114.1 L565.8,113.7 L568.0,113.2 L570.1,112.7 L572.3,112.3 L574.5,111.8 L576.7,111.4 L578.9,110.9 L581.1,110.5 L583.3,110.0 L585.5,109.6 L587.6,109.1 L589.8,108.7 L592.0,108.3 L594.2,107.8 L596.4,107.4 L598.6,107.0 L600.8,106.6 L602.9,106.1 L605.1,105.7 L607.3,105.3 L609.5,104.9 L611.7,104.4 L613.9,104.0 L616.1,103.6 L618.3,103.2 L620.4,102.8 L622.6,102.4 L624.8,102.0 L627.0,101.6 L629.2,101.2 L631.4,100.8 L633.6,100.4 L635.8,100.0 L637.9,99.6 L640.1,99.2 L642.3,98.8 L644.5,98.4 L646.7,98.1 L648.9,97.7 L651.1,97.3 L653.3,96.9 L655.4,96.5 L657.6,96.2 L659.8,95.8 L662.0,95.4 L664.2,95.1 L666.4,94.7 L668.6,94.3 L670.8,94.0 L672.9,93.6 L675.1,93.2 L677.3,92.9 L679.5,92.5 L681.7,92.2 L683.9,91.8 L686.1,91.4 L688.3,91.1 L690.4,90.7 L692.6,90.4 L694.8,90.0 L697.0,89.7 L699.2,89.4 L701.4,89.0 L703.6,88.7 L705.8,88.3 L707.9,88.0 L710.1,87.7 L712.3,87.3 L714.5,87.0 L716.7,86.7 L718.9,86.3 L721.1,86.0 L723.3,85.7 L725.4,85.4 L727.6,85.0 L729.8,84.7 L732.0,84.4" fill="none" stroke="#2563eb" stroke-width="2.6" stroke-linejoin="round"/>
<circle cx="143.4" cy="296.7" r="4.5" fill="#2563eb" stroke="white" stroke-width="1.5"/>
<text x="151.4" y="312.7" font-size="12.5" text-anchor="start" fill="#111827" font-weight="normal">700×</text>
<circle cx="274.2" cy="209.0" r="4.5" fill="#2563eb" stroke="white" stroke-width="1.5"/>
<text x="282.2" y="225.0" font-size="12.5" text-anchor="start" fill="#111827" font-weight="normal">2.6 million×</text>
<circle cx="405.0" cy="155.9" r="4.5" fill="#2563eb" stroke="white" stroke-width="1.5"/>
<text x="413.0" y="171.9" font-size="12.5" text-anchor="start" fill="#111827" font-weight="normal">400 million×</text>
<circle cx="568.5" cy="113.1" r="4.5" fill="#2563eb" stroke="white" stroke-width="1.5"/>
<text x="576.5" y="129.1" font-size="12.5" text-anchor="start" fill="#111827" font-weight="normal">20 billion×</text>
<line x1="503.1" y1="60" x2="503.1" y2="366" stroke="#ea580c" stroke-width="1.4" stroke-dasharray="4 4"/>
<text x="498.1" y="312.1" font-size="12.5" text-anchor="end" fill="#ea580c">ABS interface, 50 °C chamber</text>
<line x1="568.5" y1="60" x2="568.5" y2="366" stroke="#16a34a" stroke-width="1.4" stroke-dasharray="4 4"/>
<text x="573.5" y="336.6" font-size="12.5" text-anchor="start" fill="#16a34a">70 °C chamber</text>
<text x="313.4" y="91.8" font-size="12.5" text-anchor="middle" fill="#111827" font-weight="normal">65 K to 75 K above Tg: about 4× faster</text>
<text x="405.0" y="414" font-size="13.5" text-anchor="middle" fill="#111827">Degrees above Tg (K)</text>
<text x="24" y="213.0" font-size="13.5" text-anchor="middle" fill="#111827" transform="rotate(-90 24 213.0)">Speed-up vs at Tg (log10)</text>
</svg>
